<?xml version="1.0" encoding="utf-8"?>
<!-- Generator: Adobe Illustrator 16.0.0, SVG Export Plug-In . SVG Version: 6.00 Build 0)  -->
<!DOCTYPE svg PUBLIC "-//W3C//DTD SVG 1.1//EN" "http://www.w3.org/Graphics/SVG/1.1/DTD/svg11.dtd">
<svg version="1.1" id="Capa_1" xmlns="http://www.w3.org/2000/svg" xmlns:xlink="http://www.w3.org/1999/xlink" x="0px" y="0px"
	 width="500px" height="500px" viewBox="0 0 500 500" enable-background="new 0 0 500 500" xml:space="preserve">
<g>
	<polygon points="91.861,120.467 91.861,250 98.346,250 142.558,250 155.644,250 155.644,263.086 155.644,289.59 171.626,289.59 
		171.626,263.086 171.626,250 184.712,250 228.924,250 242.009,250 242.009,263.086 242.009,289.59 257.992,289.59 257.992,263.086 
		257.992,250 271.078,250 315.29,250 328.376,250 328.376,263.086 328.376,289.59 344.358,289.59 344.358,263.086 344.358,250 
		357.444,250 401.656,250 408.139,250 408.139,120.467 387.193,120.467 387.193,148.491 357.353,148.491 357.353,120.467 
		326.057,120.467 326.057,148.491 296.216,148.491 296.216,120.467 269.628,120.467 269.628,6.605 230.372,6.605 230.372,120.467 
		203.784,120.467 203.784,148.491 173.943,148.491 173.943,120.467 142.646,120.467 142.646,148.491 112.806,148.491 
		112.806,120.467 	"/>
	<polygon points="473.397,263.086 443.811,263.086 443.811,302.676 408.139,302.676 401.656,302.676 401.656,263.086 
		357.444,263.086 357.444,302.676 315.29,302.676 315.29,263.086 271.078,263.086 271.078,302.676 228.924,302.676 228.924,263.086 
		184.712,263.086 184.712,302.676 142.558,302.676 142.558,263.086 98.346,263.086 98.346,302.676 91.861,302.676 56.192,302.676 
		56.192,263.086 26.603,263.086 26.603,493.396 196.683,493.396 196.683,401.795 313.921,401.795 313.921,493.396 473.397,493.396 	
		"/>
	<polygon points="290.871,18.003 290.871,99.896 419.169,58.948 	"/>
</g>
</svg>
