<?xml version="1.0" encoding="utf-8"?>
<!-- Generator: Adobe Illustrator 16.0.4, SVG Export Plug-In . SVG Version: 6.00 Build 0)  -->
<!DOCTYPE svg PUBLIC "-//W3C//DTD SVG 1.1//EN" "http://www.w3.org/Graphics/SVG/1.1/DTD/svg11.dtd">
<svg version="1.1" id="Capa_1" xmlns="http://www.w3.org/2000/svg" xmlns:xlink="http://www.w3.org/1999/xlink" x="0px" y="0px"
	 width="19.936px" height="17.178px" viewBox="0 0 19.936 17.178" enable-background="new 0 0 19.936 17.178" xml:space="preserve">
<path d="M19.691,14.069v-0.549h-0.587v0.549h-0.539v-0.549h-0.586v0.549H17.71v-4.59h-0.002c-0.038-0.437-1.93-1.173-4.624-1.341
	L12.783,7.8V6.603h0.172V6.145h-0.53V5.31H12.23v0.076h-1.956V4.546h-0.13c0.014-0.206,0.049-0.583,0.153-0.701
	c0.146-0.165,0.271-0.125,0.319-0.125c0.048,0,0.097-0.219-0.109-0.219c-0.21,0-0.394,0.069-0.394,0.069s0.087-0.193,0.014-0.259
	C10.11,3.297,10.09,3.29,10.065,3.285V0H9.956v3.278C9.872,3.291,9.795,3.327,9.81,3.377c0.024,0.098,0.035,0.18,0.035,0.18
	s-0.097-0.125-0.22-0.207c-0.124-0.083-0.403-0.056-0.33,0.026c0.073,0.086,0.439,0.333,0.479,0.552
	c0.023,0.152,0.073,0.449,0.101,0.618h-0.14v0.838H7.656V5.301H7.461v0.843H6.922v0.458h0.09v1.199L6.699,8.153
	c-2.574,0.174-4.36,0.901-4.397,1.326H2.3v4.59H1.982v-0.549H1.394v0.549H0.855v-0.549H0.269v0.549H0v3.107h19.936v-3.107H19.691z
	 M10.944,8.077V9.01H8.89V8.077H10.944z M10.47,16.827H9.469v-1.721h1.001V16.827z M17.466,13.021
	c-0.228-0.164-0.802-0.393-2.031-0.592c-1.448-0.234-3.378-0.365-5.431-0.365c-2.052,0-3.98,0.129-5.43,0.365
	c-1.276,0.207-1.85,0.445-2.054,0.611v-0.318c0.308-0.18,0.896-0.383,2.018-0.564c1.459-0.238,3.4-0.367,5.466-0.367
	c2.064,0,4.006,0.129,5.466,0.367c1.094,0.178,1.68,0.375,1.996,0.551V13.021z M17.466,10.989c-0.228-0.166-0.802-0.395-2.031-0.596
	c-1.448-0.234-3.378-0.365-5.431-0.365c-2.052,0-3.98,0.131-5.43,0.365c-1.276,0.207-1.85,0.447-2.054,0.613v-0.318
	c0.308-0.18,0.896-0.385,2.018-0.566c1.459-0.236,3.4-0.367,5.466-0.367c2.064,0,4.006,0.131,5.466,0.367
	c1.094,0.178,1.68,0.375,1.996,0.553V10.989z" fill="#E0CCC8"/>
</svg>
