<?xml version="1.0" encoding="utf-8"?>
<!-- Generator: Adobe Illustrator 16.0.4, SVG Export Plug-In . SVG Version: 6.00 Build 0)  -->
<!DOCTYPE svg PUBLIC "-//W3C//DTD SVG 1.1//EN" "http://www.w3.org/Graphics/SVG/1.1/DTD/svg11.dtd">
<svg version="1.1" id="Capa_1" xmlns="http://www.w3.org/2000/svg" xmlns:xlink="http://www.w3.org/1999/xlink" x="0px" y="0px"
	 width="10.014px" height="19.936px" viewBox="0 0 10.014 19.936" enable-background="new 0 0 10.014 19.936" xml:space="preserve">
<path d="M9.476,19.421v-7.929l0.038,0.001V10.02L9.348,8.442L8.219,1.325V1.27H8.141v0.016l-1.3,6.973L6.623,9.98v0.91H5.75
	L4.855,9.61V9.373c0,0-0.01-0.335-0.04-0.364c-0.028-0.03-0.038,0.364-0.038,0.364V9.59l-0.829,1.3h-1.02V7.93H2.917
	c0.021-0.17,0.097-0.848,0.066-1.156C2.946,6.418,2.841,6.09,2.841,6.09S2.708,6.459,2.708,6.563c0,0.104-0.011-0.788-0.045-1.01
	C2.626,5.328,2.578,5.052,2.578,5.052L2.483,5.537c0,0-0.095-0.169-0.131-0.184C2.317,5.34,2.317,4.894,2.294,4.763
	C2.27,4.631,2.27,4.631,2.27,4.631L1.766,0H1.719L1.194,4.29L1.138,4.631c0,0,0,0-0.025,0.132C1.089,4.894,1.089,5.34,1.053,5.354
	C1.018,5.368,0.925,5.537,0.925,5.537L0.828,5.052c0,0-0.047,0.276-0.082,0.501c-0.035,0.222-0.047,1.115-0.047,1.01
	c0-0.104-0.132-0.473-0.132-0.473S0.461,6.418,0.427,6.774C0.395,7.083,0.471,7.76,0.491,7.931H0.479v3.035H0.322v0.276h0.152v8.179
	H0v0.515h10.014v-0.515H9.476z M3.616,19.262H2.821v-1.823c0,0,0.04-0.336,0.399-0.336c0.358,0,0.396,0.336,0.396,0.336V19.262z
	 M5.653,19.262H4.36v-2.383c0,0,0.06-0.546,0.646-0.546c0.585,0,0.646,0.546,0.646,0.546L5.653,19.262L5.653,19.262z M4.878,14.541
	c-0.757,0-1.375-0.617-1.375-1.376c0-0.757,0.617-1.375,1.375-1.375c0.76,0,1.376,0.618,1.376,1.375
	C6.254,13.924,5.637,14.541,4.878,14.541z M7.19,19.262H6.395v-1.823c0,0,0.038-0.336,0.396-0.336c0.362,0,0.398,0.336,0.398,0.336
	V19.262z M4.878,12.169c-0.548,0-0.996,0.448-0.996,0.996c0,0.55,0.448,0.998,0.996,0.998c0.551,0,0.997-0.447,0.997-0.998
	C5.875,12.617,5.428,12.169,4.878,12.169z" fill="#E0CCC8"/>
</svg>
