<?xml version="1.0" encoding="iso-8859-1"?>
<!-- Generator: Adobe Illustrator 17.1.0, SVG Export Plug-In . SVG Version: 6.00 Build 0)  -->
<!DOCTYPE svg PUBLIC "-//W3C//DTD SVG 1.1//EN" "http://www.w3.org/Graphics/SVG/1.1/DTD/svg11.dtd">
<svg version="1.1" id="Layer_1" xmlns="http://www.w3.org/2000/svg" xmlns:xlink="http://www.w3.org/1999/xlink" x="0px" y="0px"
	 viewBox="0 0 64 64" style="enable-background:new 0 0 64 64;" xml:space="preserve">
<g>
	<path d="M29.01,62H33V51h-5v-2h5v-1h-5v-2h5v-1h-5v-2h5v-1h-5v-2h5v-1h-5v-2h5v-1h-5v-2h5v-1h-5v-2h5v-1h-5v-2h5v-1h-5v-2h5v-1h-5
		v-2h5v-1h-5v-2h5h1h0.5H36h2v-5h-2v-2h-2v-2h-1V4h-2v6h-1v2h-2v2h-2v43.378C27.707,58.245,28.907,59.947,29.01,62z M28,16h8v2h-8
		V16z" fill="#E0CCC8"/>
	<path d="M19,62h7h2.017c-0.063-1.235-0.849-2.578-2.017-3.427c-0.723-0.525-1.592-0.863-2.532-0.863
		c-1.882,0-3.496,1.227-4.196,2.853c-0.078-0.192-0.171-0.376-0.273-0.554v-0.872v-0.802V52h-2v5.027v0.581v0.513
		c-0.612-0.299-1.298-0.467-2.025-0.467c-1.977,0-4.309,1.038-4.309,3.601C10.666,61.54,10.7,62,10.75,62H17H19z" fill="#E0CCC8"/>
	<polygon points="19,51 23.738,51 18,28.375 12.531,51 17,51 	" fill="#E0CCC8"/>
	<path d="M41,57.404c0.316-0.176,0.65-0.325,1-0.439c0.631-0.206,1.303-0.311,1.975-0.311c0.709,0,1.392,0.134,2.025,0.373V20h-8h-2
		h-2v1v1v2v1v2v1v2v1v2v1v2v1v2v1v2v1v2v1v2v1v2v11v1h4.915l-0.149-0.734c-0.019-0.103-0.028-0.18-0.042-0.266
		c-0.035-0.228-0.059-0.43-0.059-0.658c0-0.647,0.124-1.224,0.334-1.74C39.396,58.633,40.116,57.898,41,57.404z M39,54v-2h2v2H39z
		 M36,52h2v2h-2V52z M36,49h2v2h-2V49z M36,46h2v2h-2V46z M36,43h2v2h-2V43z M36,40h2v2h-2V40z M36,37h2v2h-2V37z M36,34h2v2h-2V34z
		 M36,31h2v2h-2V31z M36,28h2v2h-2V28z M36,25h2v2h-2V25z M41,27h-2v-2h2V27z M41,30h-2v-2h2V30z M41,33h-2v-2h2V33z M41,36h-2v-2h2
		V36z M41,39h-2v-2h2V39z M41,42h-2v-2h2V42z M41,45h-2v-2h2V45z M41,48h-2v-2h2V48z M41,51h-2v-2h2V51z M44,54h-2v-2h2V54z M44,51
		h-2v-2h2V51z M44,48h-2v-2h2V48z M44,45h-2v-2h2V45z M44,42h-2v-2h2V42z M44,39h-2v-2h2V39z M44,36h-2v-2h2V36z M44,33h-2v-2h2V33z
		 M44,30h-2v-2h2V30z M44,27h-2v-2h2V27z M44,24h-2v-2h2V24z M41,24h-2v-2h2V24z M38,22v2h-2v-2H38z" fill="#E0CCC8"/>
	<path d="M52.468,57.709c-1.882,0-3.496,1.227-4.196,2.853c-0.278-0.689-0.721-1.29-1.273-1.769c-0.303-0.263-0.635-0.494-1-0.672
		c-0.612-0.299-1.298-0.467-2.025-0.467c-0.654,0-1.341,0.126-1.975,0.371c-0.358,0.138-0.697,0.312-1,0.537
		c-0.785,0.581-1.334,1.456-1.334,2.693C39.666,61.54,39.7,62,39.75,62H41h1h4h1h10.017C56.915,60,54.926,57.709,52.468,57.709z" fill="#E0CCC8"/>
</g>
</svg>
