<?xml version="1.0" encoding="utf-8"?>
<!-- Generator: Adobe Illustrator 16.0.4, SVG Export Plug-In . SVG Version: 6.00 Build 0)  -->
<!DOCTYPE svg PUBLIC "-//W3C//DTD SVG 1.1//EN" "http://www.w3.org/Graphics/SVG/1.1/DTD/svg11.dtd">
<svg version="1.1" id="Capa_1" xmlns="http://www.w3.org/2000/svg" xmlns:xlink="http://www.w3.org/1999/xlink" x="0px" y="0px"
	 width="6.832px" height="19.938px" viewBox="0 0 6.832 19.938" enable-background="new 0 0 6.832 19.938" xml:space="preserve">
<path d="M5.258,19.136C5.037,17.265,4.221,10.257,4.221,8.41c0-1.92,0.633-4.083,0.762-4.557h0.158c0,0,0.387,0,0.568-0.064
	c0.102-0.037,0.254-0.127,0.369-0.2H6.48L6.682,3.17h0.15V2.941H6.396V2.837h0.002c0,0-0.396-0.212-0.924-0.333
	C4.945,2.38,4.463,2.261,4.463,2.261S4.311,2.154,4.419,2.093c0.108-0.06,0.243-0.136,0.243-0.196c0-0.062,0-0.091,0-0.091h-0.17
	C4.459,1.733,4.389,1.619,4.232,1.51c-0.17-0.12-0.42-0.192-0.569-0.224V0H3.44v1.287C3.29,1.318,3.038,1.39,2.87,1.51
	C2.713,1.619,2.642,1.733,2.608,1.805H2.44c0,0,0,0.029,0,0.091c0,0.061,0.134,0.137,0.243,0.196C2.793,2.154,2.64,2.261,2.64,2.261
	S2.156,2.38,1.63,2.503C1.102,2.625,0.705,2.837,0.705,2.837v0.104H0.271V3.17h0.245l0.197,0.419h0.312
	C1.14,3.661,1.294,3.752,1.394,3.788C1.577,3.854,1.96,3.854,1.96,3.854h0.119c0.117,0.604,0.65,3.533,0.473,5.786
	c-0.091,1.16-1.044,7.777-1.295,9.496H0v0.802h6.454v-0.802H5.258z M1.137,3.325V3.092h4.912v0.233H1.137z M2.165,19.136
	c0.183-1.613,0.842-7.547,0.924-9.771c0.086-2.268-0.381-4.902-0.496-5.511h0.495C3.111,4.333,3.19,5.758,3.269,6.896
	c0.084,1.222,0.424,10.104,0.508,12.241L2.165,19.136L2.165,19.136z M3.84,6.469c-0.229,0-0.296-2.053-0.309-2.615H4.43
	C4.395,4.182,4.137,6.472,3.84,6.469z" fill="#E0CCC8"/>
</svg>
